<svg width="25" height="24" viewBox="0 0 25 24" fill="none" xmlns="http://www.w3.org/2000/svg">
<path d="M6.238 10.9583C7.17874 10.9583 8.02756 10.4381 8.60811 9.69786C9.51014 8.54773 10.647 7.59055 11.9465 6.8985C12.789 6.44982 13.52 5.78325 13.8745 4.89699C14.1226 4.27686 14.25 3.6151 14.25 2.94719V2.20825C14.25 1.725 14.6418 1.33325 15.125 1.33325C16.5747 1.33325 17.75 2.5085 17.75 3.95825C17.75 5.30182 17.4472 6.57466 16.9061 7.71224C16.5962 8.36363 17.0309 9.20825 17.7522 9.20825M17.7522 9.20825H21.399C22.5968 9.20825 23.6689 10.0179 23.7957 11.2089C23.8481 11.7015 23.875 12.2017 23.875 12.7083C23.875 16.0305 22.7178 19.0824 20.7845 21.483C20.3323 22.0445 19.6332 22.3333 18.9123 22.3333H14.227C13.6627 22.3333 13.1021 22.2423 12.5668 22.0638L8.93324 20.8527C8.39791 20.6742 7.83732 20.5833 7.27304 20.5833H5.38824M17.7522 9.20825H15.125M5.38824 20.5833C5.48485 20.8219 5.58999 21.0562 5.70327 21.2858C5.93326 21.7519 5.61223 22.3333 5.09245 22.3333H4.03337C2.99654 22.3333 2.0349 21.7289 1.73232 20.7372C1.33743 19.443 1.125 18.0692 1.125 16.6458C1.125 14.8345 1.46894 13.1037 2.09507 11.5149C2.45097 10.6118 3.36189 10.0833 4.33258 10.0833H5.5608C6.11138 10.0833 6.43019 10.7318 6.14435 11.2024C5.1802 12.7897 4.625 14.6529 4.625 16.6458C4.625 18.0382 4.89604 19.3673 5.38824 20.5833Z" stroke="white" stroke-width="2" stroke-linecap="round" stroke-linejoin="round"/>
</svg>
