<svg width="40" height="40" viewBox="0 0 40 40" fill="none" xmlns="http://www.w3.org/2000/svg">
<g clip-path="url(#clip0_1_353)">
<g filter="url(#filter0_b_1_353)">
<mask id="path-1-inside-1_1_353" fill="white">
<path d="M10.3995 19.6C10.3995 14.9566 10.3883 10.302 10.3995 5.65869C10.3995 3.74738 11.3664 2.35325 13.0641 1.80235C13.4689 1.66743 13.9073 1.61122 14.3346 1.61122C18.2584 1.59997 22.1822 1.59997 26.0947 1.61122C28.377 1.62246 30.041 3.27517 30.041 5.54626C30.0522 14.9229 30.0522 24.2883 30.041 33.6649C30.041 35.936 28.377 37.6 26.106 37.6C22.2271 37.6112 18.3483 37.6112 14.4695 37.6C12.041 37.6 10.422 36.0035 10.4108 33.5525C10.3883 28.8979 10.3995 24.2546 10.3995 19.6ZM20.2259 4.87168C19.4614 4.87168 18.6968 4.87168 17.9211 4.87168C17.314 4.88292 16.9767 5.16399 16.9654 5.65869C16.9542 6.16462 17.269 6.51315 17.8536 6.51315C19.4276 6.53564 20.9904 6.53564 22.5644 6.51315C23.1266 6.50191 23.5088 6.11965 23.4864 5.65869C23.4639 5.18648 23.0928 4.87168 22.5195 4.87168C21.7549 4.87168 20.9904 4.87168 20.2259 4.87168ZM20.2259 31.079C19.304 31.079 18.5732 31.8098 18.5844 32.7093C18.5957 33.6087 19.3489 34.3395 20.2484 34.3283C21.1253 34.317 21.8336 33.5975 21.8336 32.7093C21.8449 31.7761 21.1478 31.079 20.2259 31.079Z"/>
</mask>
<path d="M10.3995 19.6C10.3995 14.9566 10.3883 10.302 10.3995 5.65869C10.3995 3.74738 11.3664 2.35325 13.0641 1.80235C13.4689 1.66743 13.9073 1.61122 14.3346 1.61122C18.2584 1.59997 22.1822 1.59997 26.0947 1.61122C28.377 1.62246 30.041 3.27517 30.041 5.54626C30.0522 14.9229 30.0522 24.2883 30.041 33.6649C30.041 35.936 28.377 37.6 26.106 37.6C22.2271 37.6112 18.3483 37.6112 14.4695 37.6C12.041 37.6 10.422 36.0035 10.4108 33.5525C10.3883 28.8979 10.3995 24.2546 10.3995 19.6ZM20.2259 4.87168C19.4614 4.87168 18.6968 4.87168 17.9211 4.87168C17.314 4.88292 16.9767 5.16399 16.9654 5.65869C16.9542 6.16462 17.269 6.51315 17.8536 6.51315C19.4276 6.53564 20.9904 6.53564 22.5644 6.51315C23.1266 6.50191 23.5088 6.11965 23.4864 5.65869C23.4639 5.18648 23.0928 4.87168 22.5195 4.87168C21.7549 4.87168 20.9904 4.87168 20.2259 4.87168ZM20.2259 31.079C19.304 31.079 18.5732 31.8098 18.5844 32.7093C18.5957 33.6087 19.3489 34.3395 20.2484 34.3283C21.1253 34.317 21.8336 33.5975 21.8336 32.7093C21.8449 31.7761 21.1478 31.079 20.2259 31.079Z" fill="#E60000"/>
<path d="M10.3995 19.6C10.3995 14.9566 10.3883 10.302 10.3995 5.65869C10.3995 3.74738 11.3664 2.35325 13.0641 1.80235C13.4689 1.66743 13.9073 1.61122 14.3346 1.61122C18.2584 1.59997 22.1822 1.59997 26.0947 1.61122C28.377 1.62246 30.041 3.27517 30.041 5.54626C30.0522 14.9229 30.0522 24.2883 30.041 33.6649C30.041 35.936 28.377 37.6 26.106 37.6C22.2271 37.6112 18.3483 37.6112 14.4695 37.6C12.041 37.6 10.422 36.0035 10.4108 33.5525C10.3883 28.8979 10.3995 24.2546 10.3995 19.6ZM20.2259 4.87168C19.4614 4.87168 18.6968 4.87168 17.9211 4.87168C17.314 4.88292 16.9767 5.16399 16.9654 5.65869C16.9542 6.16462 17.269 6.51315 17.8536 6.51315C19.4276 6.53564 20.9904 6.53564 22.5644 6.51315C23.1266 6.50191 23.5088 6.11965 23.4864 5.65869C23.4639 5.18648 23.0928 4.87168 22.5195 4.87168C21.7549 4.87168 20.9904 4.87168 20.2259 4.87168ZM20.2259 31.079C19.304 31.079 18.5732 31.8098 18.5844 32.7093C18.5957 33.6087 19.3489 34.3395 20.2484 34.3283C21.1253 34.317 21.8336 33.5975 21.8336 32.7093C21.8449 31.7761 21.1478 31.079 20.2259 31.079Z" stroke="#E60000" stroke-width="2" mask="url(#path-1-inside-1_1_353)"/>
</g>
</g>
<defs>
<filter id="filter0_b_1_353" x="-1.60547" y="-10.3972" width="43.6543" height="60.0056" filterUnits="userSpaceOnUse" color-interpolation-filters="sRGB">
<feFlood flood-opacity="0" result="BackgroundImageFix"/>
<feGaussianBlur in="BackgroundImageFix" stdDeviation="6"/>
<feComposite in2="SourceAlpha" operator="in" result="effect1_backgroundBlur_1_353"/>
<feBlend mode="normal" in="SourceGraphic" in2="effect1_backgroundBlur_1_353" result="shape"/>
</filter>
<clipPath id="clip0_1_353">
<rect width="19.6415" height="36" fill="white" transform="translate(10.4004 1.59998)"/>
</clipPath>
</defs>
</svg>
