<svg width="25" height="24" viewBox="0 0 25 24" fill="none" xmlns="http://www.w3.org/2000/svg">
<path d="M20.7997 4.57523C24.9002 8.67574 24.9002 15.324 20.7997 19.4245M17.7064 7.66892C20.0984 10.0609 20.0984 13.939 17.7064 16.331M6.375 7.62491L11.8813 2.11863C12.4325 1.56741 13.375 1.95781 13.375 2.73735V21.2625C13.375 22.042 12.4325 22.4324 11.8813 21.8812L6.375 16.3749H3.76056C2.73466 16.3749 1.77356 15.784 1.5011 14.795C1.25595 13.905 1.125 12.9678 1.125 11.9999C1.125 11.0321 1.25595 10.0948 1.5011 9.20486C1.77356 8.2158 2.73466 7.62491 3.76056 7.62491H6.375Z" stroke="white" stroke-width="2" stroke-linecap="round" stroke-linejoin="round"/>
</svg>
